<?xml version="1.0" encoding="UTF-8" standalone="no"?>
<!-- Created with Inkscape (http://www.inkscape.org/) -->

<svg
   width="17.342558mm"
   height="7.9074101mm"
   viewBox="0 0 17.342558 7.9074101"
   version="1.1"
   id="svg5"
   xmlns="http://www.w3.org/2000/svg"
   xmlns:svg="http://www.w3.org/2000/svg">
  <defs
     id="defs2">
    <rect
       x="107.8326"
       y="337.63977"
       width="353.5495"
       height="183.84573"
       id="rect2739" />
  </defs>
  <g
     id="layer1"
     transform="translate(-83.281912,-113.23211)">
    <text
       xml:space="preserve"
       transform="scale(0.26458333)"
       id="text2737"
       style="font-style:normal;font-weight:normal;font-size:40px;line-height:1.25;font-family:sans-serif;white-space:pre;shape-inside:url(#rect2739);fill:#000000;fill-opacity:1;stroke:none" />
    <g
       aria-label="DOK"
       id="text3141"
       style="font-size:10.5833px;line-height:1.25;stroke-width:0.264583">
      <path
         d="m 84.646166,114.38966 v 5.59137 h 1.312577 q 0.702797,0 1.002519,-0.7028 0.134359,-0.32039 0.134359,-0.68212 v -2.83186 q 0,-0.77515 -0.485757,-1.15755 -0.289387,-0.21704 -0.651121,-0.21704 z m -1.364254,6.74892 v -7.90647 h 2.676831 q 1.384924,0 2.077386,1.0542 0.423745,0.65112 0.423745,1.47794 v 2.83186 q 0,1.13688 -0.744138,1.87068 -0.692462,0.67179 -1.756993,0.67179 z"
         style="font-family:'a Area Kilometer 50';-inkscape-font-specification:'a Area Kilometer 50, Normal'"
         id="path19505" />
      <path
         d="m 93.059062,118.84635 v -3.29788 c 0,-0.40652 -0.182589,-0.72347 -0.547768,-0.95085 -0.220485,-0.1447 -0.465086,-0.21704 -0.733803,-0.21704 -0.454751,0 -0.80615,0.17225 -1.054196,0.51676 -0.144694,0.19982 -0.217041,0.41686 -0.217041,0.65113 v 3.29788 c 0,0.40652 0.18259,0.70499 0.547769,0.93925 0.220485,0.13781 0.461641,0.20671 0.723468,0.20671 0.461641,0 0.816485,-0.1757 1.064531,-0.5271 0.144693,-0.19981 0.21704,-0.39148 0.21704,-0.61886 z m -3.917061,0 v -3.29788 c 0,-0.76482 0.313503,-1.36771 0.940508,-1.80867 0.482312,-0.33762 1.047306,-0.50643 1.694982,-0.50643 0.840601,0 1.515837,0.26182 2.025709,0.78548 0.413411,0.4203 0.620116,0.93017 0.620116,1.52962 v 3.29788 c 0,0.76481 -0.313503,1.3677 -0.940508,1.80867 -0.482312,0.33762 -1.050751,0.4845 -1.705317,0.4845 -0.847491,0 -1.522728,-0.2399 -2.02571,-0.76356 -0.40652,-0.42718 -0.60978,-0.93705 -0.60978,-1.52961 z"
         style="font-family:'a Area Kilometer 50';-inkscape-font-specification:'a Area Kilometer 50, Normal'"
         id="path19507" />
      <path
         d="m 95.343153,113.23211 h 1.364254 v 3.19359 l 2.232415,-3.19359 h 1.581298 l -2.749182,3.81371 2.852532,4.09276 h -1.612302 l -2.273755,-3.37963 h -0.03101 v 3.37963 h -1.364254 z"
         style="font-family:'a Area Kilometer 50';-inkscape-font-specification:'a Area Kilometer 50, Normal'"
         id="path19509" />
    </g>
  </g>
</svg>
